HIERARCHY
ROOT Hips
{
	OFFSET -8.464133 100.302628 -2.129164
	CHANNELS 6 Xposition Yposition Zposition Xrotation Yrotation Zrotation
	JOINT Chest
	{
		OFFSET 3.011968 13.124092 2.200126
		CHANNELS 3 Xrotation Yrotation Zrotation
		JOINT Chest2
		{
			OFFSET 3.370588 20.235893 6.181762
			CHANNELS 3 Xrotation Yrotation Zrotation
			JOINT Chest3
			{
				OFFSET -0.850996 14.870148 0.987207
				CHANNELS 3 Xrotation Yrotation Zrotation
				JOINT Neck
				{
					OFFSET 0.608796 17.083115 2.532293
					CHANNELS 3 Xrotation Yrotation Zrotation
					JOINT Head
					{
						OFFSET -2.464946 9.941833 2.216261
						CHANNELS 3 Xrotation Yrotation Zrotation
						End Site
						{
							OFFSET -2.450248 9.960602 2.147164
						}
					}
				}
				JOINT LeftCollar
				{
					OFFSET 5.073683 12.625549 4.081373
					CHANNELS 3 Xrotation Yrotation Zrotation
					JOINT LeftUpArm
					{
						OFFSET 13.050671 10.235275 -5.780854
						CHANNELS 3 Xrotation Yrotation Zrotation
						JOINT LeftLowArm
						{
							OFFSET 7.881493 27.013885 18.650991
							CHANNELS 3 Xrotation Yrotation Zrotation
							JOINT LeftHand
							{
								OFFSET -8.966461 23.707733 16.077713
								CHANNELS 3 Xrotation Yrotation Zrotation
								End Site
								{
									OFFSET -1.959678 5.181458 3.513878
								}
							}
						}
					}
				}
				JOINT RightCollar
				{
					OFFSET -3.232994 12.721252 5.433790
					CHANNELS 3 Xrotation Yrotation Zrotation
					JOINT RightUpArm
					{
						OFFSET -16.753145 3.472198 -3.971443
						CHANNELS 3 Xrotation Yrotation Zrotation
						JOINT RightLowArm
						{
							OFFSET -17.991077 20.927475 19.444691
							CHANNELS 3 Xrotation Yrotation Zrotation
							JOINT RightHand
							{
								OFFSET -3.958130 24.213867 17.290936
								CHANNELS 3 Xrotation Yrotation Zrotation
								End Site
								{
									OFFSET -0.865082 5.292191 3.779099
								}
							}
						}
					}
				}
			}
		}
	}
	JOINT LeftUpLeg
	{
		OFFSET 9.507905 -1.738892 -2.644832
		CHANNELS 3 Xrotation Yrotation Zrotation
		JOINT LeftLowLeg
		{
			OFFSET 19.978441 -41.710808 10.249826
			CHANNELS 3 Xrotation Yrotation Zrotation
			JOINT LeftFoot
			{
				OFFSET -29.080761 -24.688694 -23.352633
				CHANNELS 3 Xrotation Yrotation Zrotation
				JOINT LeftToe
				{
					OFFSET -11.736094 -19.970182 4.797436
					CHANNELS 3 Xrotation Yrotation Zrotation
					End Site
					{
						OFFSET -0.300217 -17.711472 15.677134
					}
				}
			}
		}
	}
	JOINT RightUpLeg
	{
		OFFSET -9.507953 1.738701 2.644801
		CHANNELS 3 Xrotation Yrotation Zrotation
		JOINT RightLowLeg
		{
			OFFSET 0.999130 -40.625664 24.342751
			CHANNELS 3 Xrotation Yrotation Zrotation
			JOINT RightFoot
			{
				OFFSET 9.134952 -41.220211 -14.765732
				CHANNELS 3 Xrotation Yrotation Zrotation
				JOINT RightToe
				{
					OFFSET 3.987706 -16.342314 16.630812
					CHANNELS 3 Xrotation Yrotation Zrotation
					End Site
					{
						OFFSET -4.693218 -4.450995 22.753429
					}
				}
			}
		}
	}
}
MOTION
Frames: 17
Frame Time: 0.033333
0.733689 105.151787 -1.111721 -3.970251 -15.031141 9.021192 -5.913255 0.923511 -0.208255 9.653623 7.248183 -10.419248 -1.045310 -0.339545 1.336203 -2.851525 18.074497 -9.478641 -0.000001 0.000000 -0.000003 7.943642 16.505557 -61.196255 36.161969 16.587311 -91.551521 28.445660 25.439634 -17.956791 -0.000003 0.000007 -0.000002 15.920442 -2.865888 36.671682 45.558762 4.184275 72.083706 31.775310 -7.188130 5.949033 -0.000006 0.000003 -0.000000 21.778138 -5.853462 -33.164086 -32.251942 -16.121541 63.462518 -15.192880 0.692075 7.845060 0.000003 -0.000001 0.000001 31.339941 -9.246922 -10.617915 -29.411672 -6.738136 -17.228208 -4.564682 34.264686 -1.431516 0.000001 0.000000 0.000003 
0.737484 105.151436 -1.102585 -3.971583 -15.160404 9.064719 -6.023773 0.946557 -0.220593 9.507356 7.333327 -10.453391 -0.923605 -0.364694 1.373213 -2.893564 18.091474 -9.488613 -0.000002 0.000000 -0.000000 7.953057 16.754847 -61.240412 36.212307 16.398142 -91.502624 28.166027 25.441056 -17.901378 -0.000003 0.000003 -0.000000 15.938342 -2.798414 36.627190 45.674520 4.181133 72.190715 31.608428 -7.242111 6.006558 -0.000003 -0.000001 -0.000003 21.934826 -5.950988 -33.289744 -32.368915 -16.186150 63.479826 -15.545888 0.717875 8.036565 0.000003 -0.000001 0.000000 31.676819 -9.373935 -10.733110 -29.673716 -6.780627 -17.206245 -4.416578 34.622413 -1.530747 0.000003 -0.000000 0.000001 
0.743812 105.149780 -1.084766 -3.842401 -15.161352 8.970660 -6.088501 0.924240 -0.137632 9.166750 7.392809 -10.379447 -0.620070 -0.096424 1.444248 -2.887620 18.013903 -9.415661 -0.000003 -0.000001 0.000000 7.977198 16.857172 -61.281147 36.185519 16.098457 -91.326630 28.059339 25.594268 -18.340014 -0.000003 -0.000002 -0.000002 15.903132 -3.046859 36.662936 45.779794 3.938999 72.380949 31.646677 -7.132855 5.944884 0.000001 0.000002 -0.000003 21.792098 -5.893585 -33.164858 -32.330670 -16.192770 63.430082 -15.590573 0.714321 8.024654 0.000007 0.000001 -0.000001 31.632993 -9.314217 -10.638483 -29.757737 -6.789526 -17.178305 -4.727348 34.817323 -1.411727 0.000000 -0.000001 0.000004 
0.749282 105.150383 -1.072114 -4.055376 -14.970117 9.047789 -5.954705 0.932725 -0.235428 8.660618 7.382074 -10.139893 -0.212603 -0.663992 1.189136 -2.522180 18.192117 -9.636010 -0.000000 -0.000001 -0.000001 7.956603 17.325352 -61.442189 36.099978 16.273651 -91.179569 28.057698 25.667485 -18.546264 -0.000004 0.000003 0.000002 16.018433 -2.028621 36.411199 45.785794 4.008322 72.600034 31.300284 -7.186253 5.845244 -0.000005 0.000001 -0.000003 21.988329 -5.918131 -33.231281 -32.491876 -16.259726 63.347443 -15.634660 0.802215 8.128426 0.000006 0.000001 -0.000001 31.626822 -9.381975 -10.721928 -29.581392 -6.709426 -17.135587 -4.559331 34.571026 -1.485576 0.000001 0.000001 0.000001 
0.763538 105.150703 -1.056639 -4.266025 -14.999766 9.067686 -5.888959 0.913876 -0.229709 8.841713 7.373055 -10.204473 -0.326935 -0.004646 1.254257 -2.244451 17.805647 -9.429156 -0.000002 -0.000000 0.000000 7.948739 16.680884 -61.218849 36.161323 16.491832 -91.446022 28.230425 25.833375 -18.690263 0.000001 0.000002 -0.000002 15.833625 -3.200083 36.592957 46.003359 3.520526 73.057370 31.699410 -7.209002 5.734194 -0.000003 0.000000 -0.000001 22.300825 -5.993615 -33.396825 -32.659472 -16.215800 63.420595 -15.504123 0.702121 8.063388 -0.000000 -0.000000 0.000001 31.693451 -9.429099 -10.785125 -29.372826 -6.804420 -17.232473 -4.656056 34.813737 -1.503882 0.000002 -0.000000 0.000001 
0.774824 105.148125 -1.039624 -3.919249 -14.807075 9.087699 -6.600966 1.019085 -0.028722 9.307059 7.273022 -10.278192 -0.703594 -0.403372 1.240585 -2.038105 17.987430 -9.511955 -0.000003 -0.000001 0.000000 7.889272 17.370371 -61.079937 36.147253 16.720996 -91.583616 28.331772 26.032327 -19.433584 -0.000005 0.000000 -0.000001 15.817098 -3.234133 36.599705 45.883995 3.768734 72.871480 31.552663 -7.307646 6.265821 -0.000003 0.000006 -0.000001 22.299774 -6.043871 -33.408122 -33.109608 -16.473692 63.504503 -15.393452 0.605137 7.895568 0.000003 -0.000001 0.000001 31.539775 -9.373127 -10.814832 -29.649312 -6.827004 -17.056500 -4.214176 34.804134 -1.683028 0.000000 -0.000002 -0.000001 
0.786690 105.146011 -1.027388 -3.785928 -14.814344 9.109177 -6.665293 1.049800 -0.065451 9.561826 7.216187 -10.331684 -0.829094 -0.854588 1.252562 -1.861337 18.238495 -9.759174 -0.000002 -0.000002 0.000001 7.824417 18.278910 -61.337838 36.024508 16.689801 -91.234546 28.678858 25.974899 -19.583566 -0.000006 -0.000000 -0.000004 15.909338 -2.664570 36.643200 45.726050 3.943687 72.532846 31.457597 -7.192853 6.040481 -0.000000 -0.000001 -0.000003 22.136467 -6.014451 -33.358890 -33.049171 -16.388356 63.439637 -15.372599 0.607191 7.863726 0.000006 -0.000001 -0.000002 31.580128 -9.410489 -10.860427 -29.982741 -6.906038 -16.942696 -4.136218 34.842584 -1.720909 0.000002 -0.000001 0.000003 
0.797569 105.149544 -1.017375 -3.603555 -15.012939 9.091969 -6.816243 1.063738 0.001176 9.434946 7.277199 -10.334260 -0.689315 -0.963523 1.226797 -1.685735 18.350517 -9.823317 0.000000 0.000000 -0.000001 7.899336 17.979829 -61.333364 36.130014 16.751087 -91.339874 28.650031 25.814020 -18.882539 -0.000005 0.000003 -0.000000 16.002139 -2.230396 36.494862 45.823063 4.012540 72.614514 31.402577 -7.024163 5.592249 -0.000004 -0.000002 -0.000002 22.104266 -6.026276 -33.384718 -33.150111 -16.469169 63.478002 -15.356065 0.586423 7.844949 0.000004 -0.000000 0.000001 31.389514 -9.351316 -10.869522 -30.069495 -6.915599 -16.883411 -4.025061 34.885987 -1.774234 0.000000 -0.000000 0.000001 
0.808809 105.153503 -1.005365 -3.821184 -14.994678 9.044154 -6.604578 1.034341 -0.074967 9.182939 7.293636 -10.248081 -0.337499 -0.959385 1.243891 -2.032351 18.355041 -9.773844 0.000000 -0.000002 -0.000001 7.862042 18.232922 -61.296611 36.158980 16.681861 -91.318331 28.747064 25.880239 -18.892763 -0.000002 0.000001 -0.000003 15.997281 -2.290720 36.435012 45.836546 4.023466 72.618469 31.479850 -7.047913 5.493144 -0.000003 0.000000 -0.000000 22.265001 -6.050985 -33.376863 -32.965119 -16.393147 63.508158 -15.348668 0.475896 7.662213 0.000005 -0.000002 0.000003 31.372118 -9.290707 -10.766283 -29.752144 -6.851107 -17.111328 -4.228629 35.036910 -1.686189 0.000002 0.000001 -0.000000 
0.819266 105.155334 -0.989271 -3.923817 -15.030280 9.046629 -6.377930 0.997728 -0.104857 8.306633 7.375278 -9.955764 0.334478 -0.768792 1.054493 -1.922398 18.315446 -9.838741 -0.000002 -0.000002 0.000001 7.750935 17.970892 -61.151414 36.098076 16.764843 -91.428823 28.826752 25.776210 -19.133184 -0.000003 0.000005 0.000001 15.848547 -2.575883 36.398884 45.794513 3.975901 72.723258 31.614046 -6.998720 5.714172 -0.000003 0.000003 -0.000005 22.294077 -6.101598 -33.415136 -33.052358 -16.473667 63.547465 -15.493155 0.543529 7.761481 0.000006 0.000001 -0.000001 31.483494 -9.285889 -10.783657 -29.706275 -6.759345 -17.196470 -4.229796 35.042982 -1.639519 0.000000 0.000000 0.000005 
0.829179 105.157768 -0.982165 -3.674223 -14.964039 9.089212 -6.871631 1.076561 0.016215 9.486521 7.225787 -10.284442 -0.552212 -0.499970 1.220443 -1.882425 18.102091 -9.651364 -0.000001 -0.000001 -0.000000 7.918996 17.024289 -61.184124 36.213342 16.601178 -91.306037 28.647246 25.766216 -18.598805 -0.000005 0.000005 -0.000003 15.907666 -2.730354 36.423384 45.898663 4.129256 72.554839 31.452099 -7.129630 5.402893 -0.000002 0.000000 -0.000002 22.183580 -6.093752 -33.388038 -33.261348 -16.511009 63.510172 -15.349897 0.417217 7.544028 0.000001 -0.000000 0.000001 31.475834 -9.272809 -10.827110 -30.078070 -6.836509 -17.050652 -4.283069 35.009091 -1.604933 -0.000000 -0.000000 -0.000001 
0.838334 105.155144 -0.965467 -3.726506 -15.254886 9.055837 -6.841545 1.099224 -0.034800 9.327944 7.255883 -10.276303 -0.166444 -0.528919 1.269082 -2.096516 18.263371 -9.740368 0.000000 0.000000 -0.000001 7.760708 18.004872 -61.196193 36.067996 16.503632 -91.213229 28.892858 25.773338 -19.185938 -0.000004 -0.000001 -0.000001 15.881131 -2.477036 36.352746 45.802077 4.086371 72.705554 31.403403 -7.062596 5.612031 -0.000000 -0.000002 -0.000002 22.268485 -6.062088 -33.373793 -33.369483 -16.523592 63.414140 -14.931893 0.544329 7.568173 0.000003 -0.000004 0.000003 31.665064 -9.365539 -10.805229 -30.173928 -6.785077 -17.116280 -4.329110 35.204130 -1.594680 0.000000 0.000000 0.000005 
0.843301 105.154587 -0.951458 -3.440547 -15.283849 9.132821 -7.009062 1.131785 -0.030301 9.385835 7.254816 -10.304481 -0.381664 -0.823797 1.256794 -1.591785 18.412170 -9.920727 -0.000001 0.000000 -0.000001 7.805536 18.723507 -61.290368 36.090996 16.525646 -91.019319 29.150178 25.917194 -19.429277 -0.000005 -0.000002 -0.000003 15.969104 -2.495612 36.390490 45.858300 4.088826 72.537681 31.520930 -7.285618 5.956628 -0.000001 0.000003 -0.000001 21.892966 -5.972269 -33.404888 -33.090269 -16.480056 63.393301 -15.261714 0.588268 7.707038 0.000003 -0.000001 0.000001 31.223984 -9.287927 -10.839704 -29.827924 -6.731047 -17.123144 -4.189829 35.069470 -1.687411 0.000002 -0.000001 -0.000001 
0.846288 105.152611 -0.933795 -3.621424 -15.108167 9.083352 -6.574751 1.024530 -0.066307 9.146009 7.256003 -10.204628 -0.272092 -0.756332 1.139383 -2.041129 18.300324 -9.762324 -0.000001 0.000000 -0.000000 7.914380 18.102687 -61.319936 36.131120 16.511371 -91.084596 29.011488 25.762531 -19.006704 -0.000004 0.000003 0.000001 15.927842 -2.898492 36.530410 45.833411 4.211292 72.323603 31.592391 -7.146478 5.957452 -0.000003 0.000000 -0.000001 22.095778 -6.006362 -33.381952 -32.961687 -16.470185 63.444002 -15.586720 0.566979 7.797243 0.000007 -0.000000 0.000001 31.368122 -9.279493 -10.742286 -29.472348 -6.686894 -17.244764 -4.035096 34.842267 -1.781818 0.000001 -0.000000 0.000003 
0.844316 105.152405 -0.914190 -3.682734 -14.842891 9.058269 -6.516945 1.008329 -0.012021 9.432106 7.117347 -10.177988 -0.607691 -0.039394 1.135077 -1.629879 17.759784 -9.485360 -0.000002 0.000000 -0.000002 7.839974 17.069456 -61.055963 36.054427 16.697820 -91.459361 28.857563 25.713518 -19.305820 -0.000005 0.000000 -0.000001 15.674844 -3.517953 36.472111 45.935385 3.588009 73.201945 31.766052 -6.856744 5.939642 -0.000004 0.000000 -0.000002 22.097889 -5.966800 -33.258370 -32.914921 -16.386365 63.370434 -15.517536 0.444994 7.622265 -0.000000 -0.000001 0.000001 31.528928 -9.312651 -10.709004 -29.533086 -6.751074 -17.141065 -4.186492 34.728049 -1.720954 0.000001 -0.000000 0.000003 
0.841380 105.149979 -0.897309 -3.837231 -15.033298 9.053402 -6.281718 0.973088 -0.114297 9.224032 7.276143 -10.272301 -0.503642 -0.354051 1.301324 -1.696862 18.064139 -9.705008 0.000001 0.000000 -0.000001 7.839523 17.684690 -60.994505 36.125011 16.208905 -91.384304 28.512382 25.785427 -19.384166 -0.000003 0.000001 -0.000003 15.852222 -2.429210 36.160234 45.906121 3.902880 72.931640 31.459752 -6.863725 5.666727 -0.000000 0.000000 -0.000006 22.107437 -5.973593 -33.234225 -32.692332 -16.331220 63.266717 -15.386960 0.585926 7.743227 0.000003 -0.000004 0.000004 31.805029 -9.407578 -10.734389 -29.781414 -6.772645 -17.144997 -4.230798 34.921029 -1.709544 0.000000 0.000001 0.000003 
0.827495 105.151093 -0.879751 -3.935277 -15.028416 9.009266 -6.173320 0.962992 -0.178655 8.451223 7.438014 -10.085328 0.084848 0.024483 1.317066 -1.272323 17.824512 -9.527567 0.000000 -0.000001 -0.000001 7.933432 17.079084 -60.856145 36.285452 16.110046 -91.506421 28.244477 25.981324 -19.099594 -0.000005 0.000002 -0.000001 15.831405 -3.270129 36.403580 45.907013 4.022425 72.599133 31.674319 -7.202521 6.069212 0.000001 0.000000 -0.000005 22.200975 -5.933798 -33.183494 -32.685051 -16.293015 63.338072 -15.254504 0.458114 7.543563 0.000004 0.000001 -0.000003 31.931824 -9.447684 -10.650647 -29.989472 -6.877877 -17.136943 -4.216725 35.079626 -1.723319 0.000000 0.000000 0.000003 
